<svg xmlns="http://www.w3.org/2000/svg" width="607" height="648" viewBox="0 0 607 648">
    <path fill="none" stroke="#FFF" stroke-width="2" d="M54.122 131c6.328 0 12.47-.797 18.424-2.392 5.954-1.595 11.29-4.002 16.007-7.22 4.718-3.22 8.472-7.292 11.262-12.22 2.79-4.927 4.185-10.694 4.185-17.302 0-6.21-1.165-11.336-3.495-15.38-2.33-4.045-5.293-7.306-8.888-9.784-3.596-2.478-7.35-4.415-11.262-5.81-3.912-1.396-7.479-2.521-10.7-3.376h0l-21.574-5.81c-2.646-.684-5.235-1.538-7.766-2.563-2.532-1.026-4.631-2.379-6.3-4.059-1.668-1.68-2.502-3.86-2.502-6.537 0-2.905 1.02-5.411 3.063-7.519 2.042-2.108 4.689-3.717 7.94-4.828 3.25-1.11 6.716-1.609 10.398-1.495 3.74.114 7.32.883 10.743 2.307s6.372 3.503 8.846 6.238c2.473 2.734 4.17 6.095 5.09 10.082h0l25.371-4.272c-2.013-7.69-5.292-14.198-9.837-19.524-4.545-5.327-10.183-9.385-16.914-12.176-6.73-2.792-14.382-4.244-22.954-4.358-8.514-.057-16.281 1.253-23.3 3.93-7.018 2.678-12.627 6.75-16.827 12.22-4.2 5.468-6.3 12.332-6.3 20.592 0 5.867.993 10.723 2.978 14.568 1.984 3.845 4.473 6.936 7.464 9.271 2.992 2.336 6.084 4.13 9.277 5.383 3.193 1.253 5.997 2.222 8.413 2.905h0l32.275 9.4c2.416.74 4.415 1.566 5.997 2.477 1.582.912 2.805 1.88 3.668 2.905.862 1.026 1.48 2.122 1.855 3.29.374 1.168.56 2.378.56 3.632 0 3.417-1.164 6.294-3.494 8.63-2.33 2.335-5.307 4.101-8.932 5.297-3.624 1.197-7.363 1.795-11.218 1.795-6.903 0-13.06-1.909-18.467-5.725-5.408-3.817-8.974-9.257-10.7-16.32h0L2 90.84c1.266 8.317 4.272 15.48 9.018 21.49 4.746 6.01 10.815 10.624 18.208 13.842C36.618 129.391 44.917 131 54.122 131zM204 128v-21.872h-57.562V74.267h47.222V52.394h-47.222V25.872H204V4h-81v124h81zm72 3c10.096 0 18.973-2.03 26.631-6.09 7.66-4.061 13.635-9.778 17.929-17.15 4.293-7.372 6.44-16.04 6.44-26.005h0V4h-24.02v77.582c0 4.032-.682 7.718-2.046 11.059-1.363 3.34-3.263 6.22-5.7 8.64-2.437 2.418-5.295 4.29-8.573 5.615-3.278 1.325-6.832 1.987-10.661 1.987-3.713 0-7.209-.648-10.487-1.944-3.278-1.296-6.15-3.153-8.616-5.572-2.466-2.42-4.395-5.3-5.788-8.64-1.392-3.34-2.089-7.055-2.089-11.145h0V4L225 4.173v77.582c0 9.964 2.147 18.633 6.44 26.005 4.294 7.372 10.27 13.089 17.929 17.15 7.658 4.06 16.535 6.09 26.631 6.09zm97.898-3V45.333L428.102 128H452V4h-23.898v82.667L373.898 4H350v124h23.898zm152.015 3c12.014 0 22.44-2.614 31.276-7.843 8.837-5.23 15.682-12.466 20.533-21.71C582.574 92.202 585 81.6 585 69.64c0-.289-.029-1.387-.087-3.293-.057-1.907-.144-3.236-.26-3.987h0-44.878v18.2h19.754c-1.271 6.587-3.408 11.989-6.412 16.207-3.003 4.217-6.685 7.309-11.046 9.273-4.36 1.964-9.227 2.889-14.598 2.773-7.913-.115-14.497-1.935-19.753-5.46-5.256-3.524-9.198-8.464-11.826-14.82-2.628-6.355-3.942-13.866-3.942-22.533 0-8.667 1.314-16.236 3.942-22.707 2.628-6.47 6.57-11.469 11.826-14.993 5.256-3.524 11.84-5.229 19.753-5.113 7.97.057 14.512 2.267 19.623 6.63 5.112 4.362 8.794 10.183 11.046 17.463h0l24.086-3.467c-3.12-13.635-9.27-24.18-18.454-31.633C554.59 4.727 541.97 1 525.914 1c-10.86 0-20.75 2.542-29.674 7.627-8.924 5.084-16.028 12.465-21.313 22.143S467 52.191 467 66c0 10.573 1.574 19.904 4.722 27.993 3.148 8.09 7.45 14.878 12.909 20.367 5.458 5.489 11.739 9.634 18.843 12.437 7.105 2.802 14.584 4.203 22.44 4.203zM30.353 301v-51.15h55.293V301H109V177H85.646v50.978H30.354V177H7v124h23.354zm156.476 0v-50.461L229 177h-27.257L175 223.672 148.257 177H121l42.171 73.539V301h23.658zM293 304c10.096 0 18.973-2.03 26.631-6.09 7.66-4.061 13.635-9.778 17.929-17.15 4.293-7.372 6.44-16.04 6.44-26.005h0V177h-24.02v77.582c0 4.032-.682 7.718-2.046 11.059-1.363 3.34-3.263 6.22-5.7 8.64-2.437 2.418-5.295 4.29-8.573 5.615-3.278 1.325-6.832 1.987-10.661 1.987-3.713 0-7.209-.648-10.487-1.944-3.278-1.296-6.15-3.153-8.616-5.572-2.466-2.42-4.395-5.3-5.788-8.64-1.392-3.34-2.089-7.055-2.089-11.145h0V177l-24.02.173v77.582c0 9.964 2.147 18.633 6.44 26.005 4.294 7.372 10.27 13.089 17.929 17.15 7.658 4.06 16.535 6.09 26.631 6.09zm97.898-3v-82.667L445.102 301H469V177h-23.898v82.667L390.898 177H367v124h23.898zM61.652 474c8.395 0 15.362-1.593 20.901-4.78 5.54-3.185 9.665-7.591 12.378-13.217C97.644 450.377 99 443.86 99 436.456c0-6.89-1.927-13.118-5.782-18.687-2.57-3.712-5.996-6.544-10.28-8.496l-1.217-.496 1.421-.932c1.6-1.152 3.039-2.517 4.315-4.097l1.22-1.65c3.113-4.593 4.67-10.363 4.67-17.31 0-5.453-1.257-10.85-3.77-16.188-2.512-5.339-6.481-9.774-11.907-13.304-5.425-3.53-12.535-5.296-21.33-5.296h0H7v124h54.652zm-5.336-76H31v-27h25.316c4.447 0 7.84 1.315 10.177 3.945 2.338 2.63 3.507 5.873 3.507 9.73 0 3.098-.599 5.625-1.796 7.583-1.197 1.958-2.822 3.404-4.875 4.34-2.053.934-4.39 1.402-7.013 1.402h0zm3.367 54H31v-32h28.683c3.607 0 6.627.681 9.06 2.043 2.434 1.363 4.251 3.203 5.454 5.522 1.202 2.32 1.803 4.957 1.803 7.913 0 3.363-.701 6.276-2.104 8.74-1.403 2.463-3.335 4.376-5.797 5.739-2.462 1.362-5.267 2.043-8.416 2.043h0zM170.5 477c12.481 0 23.244-2.716 32.287-8.147 9.043-5.43 16.006-13.029 20.889-22.793C228.559 436.296 231 424.942 231 412c0-12.942-2.441-24.296-7.324-34.06-4.883-9.764-11.846-17.362-20.89-22.793-9.042-5.431-19.805-8.147-32.286-8.147-12.481 0-23.244 2.716-32.287 8.147-9.043 5.43-16.006 13.029-20.889 22.793C112.441 387.704 110 399.058 110 412c0 12.942 2.441 24.296 7.324 34.06 4.883 9.764 11.846 17.362 20.89 22.793 9.042 5.431 19.805 8.147 32.286 8.147zm-1-21.006c-7.908-.116-14.489-1.943-19.741-5.483-5.253-3.539-9.193-8.5-11.82-14.882C135.314 429.246 134 421.703 134 413c0-8.703 1.313-16.304 3.94-22.803 2.626-6.498 6.566-11.517 11.819-15.057 5.252-3.539 11.833-5.25 19.741-5.134 7.908.116 14.489 1.943 19.741 5.483 5.253 3.539 9.193 8.5 11.82 14.882C203.686 396.754 205 404.297 205 413c0 8.703-1.313 16.304-3.94 22.803-2.626 6.498-6.566 11.517-11.819 15.057-5.252 3.539-11.833 5.25-19.741 5.134zM294.122 476c6.328 0 12.47-.797 18.424-2.392 5.954-1.595 11.29-4.002 16.007-7.22 4.718-3.22 8.472-7.292 11.262-12.22 2.79-4.927 4.185-10.694 4.185-17.302 0-6.21-1.165-11.336-3.495-15.38-2.33-4.045-5.293-7.306-8.888-9.784-3.596-2.478-7.35-4.415-11.262-5.81-3.912-1.396-7.479-2.521-10.7-3.376h0l-21.574-5.81c-2.646-.684-5.235-1.538-7.766-2.563-2.532-1.026-4.631-2.379-6.3-4.059-1.668-1.68-2.502-3.86-2.502-6.537 0-2.905 1.02-5.411 3.063-7.519 2.042-2.108 4.689-3.717 7.94-4.828 3.25-1.11 6.716-1.609 10.398-1.495 3.74.114 7.32.883 10.743 2.307s6.372 3.503 8.846 6.238c2.473 2.734 4.17 6.095 5.09 10.082h0l25.371-4.272c-2.013-7.69-5.292-14.198-9.837-19.524-4.545-5.327-10.183-9.385-16.914-12.176-6.73-2.792-14.382-4.244-22.954-4.358-8.514-.057-16.281 1.253-23.3 3.93-7.018 2.678-12.627 6.75-16.827 12.22-4.2 5.468-6.3 12.332-6.3 20.592 0 5.867.993 10.723 2.978 14.568 1.984 3.845 4.473 6.936 7.464 9.271 2.992 2.336 6.084 4.13 9.277 5.383 3.193 1.253 5.997 2.222 8.413 2.905h0l32.275 9.4c2.416.74 4.415 1.566 5.997 2.477 1.582.912 2.805 1.88 3.668 2.905.862 1.026 1.48 2.122 1.855 3.29.374 1.168.56 2.378.56 3.632 0 3.417-1.164 6.294-3.494 8.63-2.33 2.335-5.307 4.101-8.932 5.297-3.624 1.197-7.363 1.795-11.218 1.795-6.903 0-13.06-1.909-18.467-5.725-5.408-3.817-8.974-9.257-10.7-16.32h0L242 435.84c1.266 8.317 4.272 15.48 9.018 21.49 4.746 6.01 10.815 10.624 18.208 13.842 7.392 3.219 15.691 4.828 24.896 4.828zm121.766 1c14.185 0 26.097-3.553 35.735-10.66 9.638-7.107 16.43-16.727 20.377-28.86h0l-23.509-6.587c-2.288 7.511-6.149 13.376-11.583 17.594-5.434 4.217-12.44 6.326-21.02 6.326-7.837 0-14.372-1.762-19.605-5.286-5.234-3.525-9.167-8.494-11.798-14.907-2.631-6.413-3.947-13.953-3.947-22.62 0-8.667 1.316-16.207 3.947-22.62 2.631-6.413 6.564-11.382 11.798-14.907 5.233-3.524 11.768-5.286 19.605-5.286 8.58 0 15.586 2.094 21.02 6.283 5.434 4.189 9.295 10.068 11.583 17.637h0L472 386.52c-3.947-12.133-10.74-21.753-20.377-28.86-9.638-7.107-21.55-10.66-35.735-10.66-12.355 0-23.009 2.716-31.96 8.147-8.952 5.43-15.845 13.029-20.678 22.793S356 399.058 356 412c0 12.942 2.417 24.296 7.25 34.06 4.833 9.764 11.726 17.362 20.678 22.793 8.951 5.431 19.605 8.147 31.96 8.147zm129.612 0c12.481 0 23.244-2.716 32.287-8.147 9.043-5.43 16.006-13.029 20.889-22.793C603.559 436.296 606 424.942 606 412c0-12.942-2.441-24.296-7.324-34.06-4.883-9.764-11.846-17.362-20.89-22.793-9.042-5.431-19.805-8.147-32.286-8.147-12.481 0-23.244 2.716-32.287 8.147-9.043 5.43-16.006 13.029-20.889 22.793C487.441 387.704 485 399.058 485 412c0 12.942 2.441 24.296 7.324 34.06 4.883 9.764 11.846 17.362 20.89 22.793 9.042 5.431 19.805 8.147 32.286 8.147zm-1-21.006c-7.908-.116-14.489-1.943-19.741-5.483-5.253-3.539-9.193-8.5-11.82-14.882C510.314 429.246 509 421.703 509 413c0-8.703 1.313-16.304 3.94-22.803 2.626-6.498 6.566-11.517 11.819-15.057 5.252-3.539 11.833-5.25 19.741-5.134 7.908.116 14.489 1.943 19.741 5.483 5.253 3.539 9.193 8.5 11.82 14.882C578.686 396.754 580 404.297 580 413c0 8.703-1.313 16.304-3.94 22.803-2.626 6.498-6.566 11.517-11.819 15.057-5.252 3.539-11.833 5.25-19.741 5.134zM61.652 647c8.395 0 15.362-1.593 20.901-4.78 5.54-3.185 9.665-7.591 12.378-13.217C97.644 623.377 99 616.86 99 609.456c0-6.89-1.927-13.118-5.782-18.687-2.57-3.712-5.996-6.544-10.28-8.496l-1.217-.496 1.421-.932c1.6-1.152 3.039-2.517 4.315-4.097l1.22-1.65c3.113-4.593 4.67-10.363 4.67-17.31 0-5.453-1.257-10.85-3.77-16.188-2.512-5.339-6.481-9.774-11.907-13.304-5.425-3.53-12.535-5.296-21.33-5.296h0H7v124h54.652zm-5.336-76H31v-27h25.316c4.447 0 7.84 1.315 10.177 3.945 2.338 2.63 3.507 5.873 3.507 9.73 0 3.098-.599 5.625-1.796 7.583-1.197 1.958-2.822 3.404-4.875 4.34-2.053.934-4.39 1.402-7.013 1.402h0zm3.367 54H31v-32h28.683c3.607 0 6.627.681 9.06 2.043 2.434 1.363 4.251 3.203 5.454 5.522 1.202 2.32 1.803 4.957 1.803 7.913 0 3.363-.701 6.276-2.104 8.74-1.403 2.463-3.335 4.376-5.797 5.739-2.462 1.362-5.267 2.043-8.416 2.043h0zm71.485 22l7.867-25.833h46.807l7.99 25.833H218l-37.978-124h-35.044L107 647h24.168zM180 598h-33l16.366-54L180 598zm135 49v-21.872h-57.562v-31.861h47.222v-21.873h-47.222v-26.522H315V523h-81v124h81z"/>
</svg>
